<svg width="907" height="1374" viewBox="0 0 907 1374" class="keymap" xmlns="http://www.w3.org/2000/svg" xmlns:xlink="http://www.w3.org/1999/xlink">
<defs>/* start glyphs */
<svg id="mdi:arrow-down-bold">
<svg xmlns="http://www.w3.org/2000/svg" id="mdi-arrow-down-bold" viewBox="0 0 24 24"><path d="M9,4H15V12H19.84L12,19.84L4.16,12H9V4Z" /></svg>
</svg>
<svg id="mdi:arrow-left-bold">
<svg xmlns="http://www.w3.org/2000/svg" id="mdi-arrow-left-bold" viewBox="0 0 24 24"><path d="M20,9V15H12V19.84L4.16,12L12,4.16V9H20Z" /></svg>
</svg>
<svg id="mdi:arrow-right-bold">
<svg xmlns="http://www.w3.org/2000/svg" id="mdi-arrow-right-bold" viewBox="0 0 24 24"><path d="M4,15V9H12V4.16L19.84,12L12,19.84V15H4Z" /></svg>
</svg>
<svg id="mdi:arrow-up-bold">
<svg xmlns="http://www.w3.org/2000/svg" id="mdi-arrow-up-bold" viewBox="0 0 24 24"><path d="M15,20H9V12H4.16L12,4.16L19.84,12H15V20Z" /></svg>
</svg>
<svg id="mdi:bluetooth-connect">
<svg xmlns="http://www.w3.org/2000/svg" id="mdi-bluetooth-connect" viewBox="0 0 24 24"><path d="M19,10L17,12L19,14L21,12M14.88,16.29L13,18.17V14.41M13,5.83L14.88,7.71L13,9.58M17.71,7.71L12,2H11V9.58L6.41,5L5,6.41L10.59,12L5,17.58L6.41,19L11,14.41V22H12L17.71,16.29L13.41,12M7,12L5,10L3,12L5,14L7,12Z" /></svg>
</svg>
<svg id="mdi:bluetooth-off">
<svg xmlns="http://www.w3.org/2000/svg" id="mdi-bluetooth-off" viewBox="0 0 24 24"><path d="M13,5.83L14.88,7.71L13.28,9.31L14.69,10.72L17.71,7.7L12,2H11V7.03L13,9.03M5.41,4L4,5.41L10.59,12L5,17.59L6.41,19L11,14.41V22H12L16.29,17.71L18.59,20L20,18.59M13,18.17V14.41L14.88,16.29" /></svg>
</svg>
<svg id="mdi:volume-high">
<svg xmlns="http://www.w3.org/2000/svg" id="mdi-volume-high" viewBox="0 0 24 24"><path d="M14,3.23V5.29C16.89,6.15 19,8.83 19,12C19,15.17 16.89,17.84 14,18.7V20.77C18,19.86 21,16.28 21,12C21,7.72 18,4.14 14,3.23M16.5,12C16.5,10.23 15.5,8.71 14,7.97V16C15.5,15.29 16.5,13.76 16.5,12M3,9V15H7L12,20V4L7,9H3Z" /></svg>
</svg>
<svg id="mdi:volume-low">
<svg xmlns="http://www.w3.org/2000/svg" id="mdi-volume-low" viewBox="0 0 24 24"><path d="M7,9V15H11L16,20V4L11,9H7Z" /></svg>
</svg>
<svg id="mdi:volume-off">
<svg xmlns="http://www.w3.org/2000/svg" id="mdi-volume-off" viewBox="0 0 24 24"><path d="M12,4L9.91,6.09L12,8.18M4.27,3L3,4.27L7.73,9H3V15H7L12,20V13.27L16.25,17.53C15.58,18.04 14.83,18.46 14,18.7V20.77C15.38,20.45 16.63,19.82 17.68,18.96L19.73,21L21,19.73L12,10.73M19,12C19,12.94 18.8,13.82 18.46,14.64L19.97,16.15C20.62,14.91 21,13.5 21,12C21,7.72 18,4.14 14,3.23V5.29C16.89,6.15 19,8.83 19,12M16.5,12C16.5,10.23 15.5,8.71 14,7.97V10.18L16.45,12.63C16.5,12.43 16.5,12.21 16.5,12Z" /></svg>
</svg>
<svg id="mdi:window-restore">
<svg xmlns="http://www.w3.org/2000/svg" id="mdi-window-restore" viewBox="0 0 24 24"><path d="M4,8H8V4H20V16H16V20H4V8M16,8V14H18V6H10V8H16M6,12V18H14V12H6Z" /></svg>
</svg>
</defs>/* end glyphs */
<style>/* inherit to force styles through use tags */
svg path {
    fill: inherit;
}

/* font and background color specifications */
svg.keymap {
    /*
     * ====================
     * Theme Variables
     * ====================
     */

    --logo-path: none;
    --logo-size: 12%;
    --logo-position: 49.5% 5%;

    /* === Colors === */

    --color--material--blue--50: rgb(227, 242, 253);
    --color--material--blue--100: rgb(187, 222, 251);
    --color--material--blue--200: rgb(144, 202, 249);
    --color--material--blue--300: rgb(100, 181, 246);
    --color--material--blue--400: rgb(66, 165, 245);
    --color--material--blue--500: rgb(33, 150, 243);
    --color--material--blue--600: rgb(30, 136, 229);
    --color--material--blue--700: rgb(25, 118, 210);
    --color--material--blue--800: rgb(21, 101, 192);
    --color--material--blue--900: rgb(13, 71, 161);
    --color--material--blue--a100: rgb(130, 177, 255);
    --color--material--blue--a200: rgb(68, 138, 255);
    --color--material--blue--a400: rgb(41, 121, 255);
    --color--material--blue--a700: rgb(41, 98, 255);

    --color--material--blue-gray--50: rgb(236, 239, 241);
    --color--material--blue-gray--100: rgb(207, 216, 220);
    --color--material--blue-gray--200: rgb(176, 190, 197);
    --color--material--blue-gray--300: rgb(144, 164, 174);
    --color--material--blue-gray--400: rgb(120, 144, 156);
    --color--material--blue-gray--500: rgb(96, 125, 139);
    --color--material--blue-gray--600: rgb(84, 110, 122);
    --color--material--blue-gray--700: rgb(69, 90, 100);
    --color--material--blue-gray--800: rgb(55, 71, 79);
    --color--material--blue-gray--900: rgb(38, 50, 56);

    --color--bg: transparent;
    --color--text: var(--color--material--blue-gray--900);

    --color--layer--text: var(--color--material--blue-gray--400);

    --color--key--bg: var(--color--material--blue-gray--50);
    --color--key--border: white;
    --color--key--text--tap: var(--color--text);
    --color--key--text--shifted: var(--color--material--blue-gray--500);
    --color--key--text--hold: var(--color--material--blue-gray--500);

    --color--combo--bg: var(--color--material--blue--50);
    --color--combo--border: var(--color--material--blue--300);
    --color--combo--dendron: var(--color--combo--border);
    --color--combo--text--tap: var(--color--material--blue-gray--800);
    --color--combo--text--shifted: var(--color--material--blue-gray--400);
    --color--combo--text--hold: var(--color--combo--text--tap);

    --color--trans--bg: transparent;
    --color--trans--border: var(--color--material--blue-gray--400);
    --color--trans--text--tap: var(--color--trans--border);
    --color--trans--text--shifted: var(--color--trans--text--tap);
    --color--trans--text--hold: var(--color--trans--text--tap);

    --color--ghost--bg: var(--color--trans--bg);
    --color--ghost--border: var(--color--trans--border);
    --color--ghost--text--tap: var(--color--trans--text--tap);
    --color--ghost--text--shifted: var(--color--trans--text--shifted);
    --color--ghost--text--hold: var(--color--trans--text--shifted);

    /*
     * ====================
     * /End Theme Variables
     * ====================
     */

    font-family: SFMono-Regular,Consolas,Liberation Mono,Menlo,monospace;
    font-size: 16px;
    font-kerning: normal;
    text-rendering: optimizeLegibility;
    fill: var(--color--text);
    background-color: var(--color--bg);
    background-image: var(--logo-path);
    background-repeat: no-repeat;
    background-position: var(--logo-position);
    background-size: var(--logo-size) auto;
}

rect,
path {
  shape-rendering: geometricPrecision;
}

text {
    text-anchor: middle;
    dominant-baseline: middle;
    line-height: 1;
}

/* Layer labels */
text.label {
    font-weight: bold;
    text-anchor: start;
    paint-order: stroke;
    fill: var(--color--layer--text);
    dominant-baseline: text-before-edge;
}


/* Keys */
rect.key,
rect.combo {
    fill: var(--color--key--bg);
    stroke: var(--color--key--border);
}
.tap {
    fill: var(--color--key--text--tap);
}
.shifted,
.hold {
    font-size: 18px;
    text-anchor: middle;
}
.shifted {
    dominant-baseline: hanging;
    fill: var(--color--key--text--shifted);
}
.hold {
    font-size: 12px;
    dominant-baseline: ideographic;
    fill: var(--color--key--text--hold);
}

.keypos-32,
.keypos-34,
.keypos-36,
.keypos-37 {
    --color--key--bg: var(--color--material--blue-gray--100);
    --color--key--border: var(--color--material--blue-gray--200);
}

/*
 * Combos
 */
.combo {
    --color--key--bg: var(--color--combo--bg);
    --color--key--border: var(--color--combo--border);
    --color--key--text--tap: var(--color--combo--text--tap);
    --color--key--text--shifted: var(--color--combo--text--shifted);
    --color--key--text--hold: var(--color--combo--text--hold);
}

rect.combo {
    stroke-width: 0;
}
path.combo {
    stroke-width: 1;
    stroke: var(--color--combo--dendron);
    stroke-dasharray: 2, 2;
    fill: none;
}
.combo.tap {
    font-size: 10px;
}
.combo.shifted {
    font-size: 10px;
    transform: translateY(-2px);
}
.combo.hold {
    font-size: 10px;
    transform: translateY(4px);
}

/*
 * Transparent, None, and Ghost Keys
 */
.trans,
.none,
.ghost {
  opacity: 0.4;
}
.none {
  display: none;
}
.trans {
    --color--key--bg: var(--color--trans--bg);
    --color--key--border: var(--color--trans--border);
    --color--key--text--tap: var(--color--trans--text--tap);
    --color--key--text--shifted: var(--color--trans--text--shifted);
    --color--key--text--hold: var(--color--trans--text--hold);
}
.ghost {
    --color--key--bg: var(--color--ghost--bg);
    --color--key--border: var(--color--ghost--border);
    --color--key--text--tap: var(--color--ghost--text--tap);
    --color--key--text--shifted: var(--color--ghost--text--shifted);
    --color--key--text--hold: var(--color--ghost--text--hold);
}
</style>
<g transform="translate(0, 0)" class="layer-BASE">
<text x="0" y="0" class="label">BASE</text>
<g transform="translate(0, 48)">
<g transform="translate(78, 121) rotate(-10.0)" class="key keypos-0">
<rect rx="4" ry="4" x="-30" y="-28" width="61" height="57" class="key"/>
<text x="0" y="0" class="key tap">Qㅂ</text>
</g>
<g transform="translate(150, 66) rotate(-4.0)" class="key keypos-1">
<rect rx="4" ry="4" x="-30" y="-28" width="61" height="57" class="key"/>
<text x="0" y="0" class="key tap">Wㅈ</text>
</g>
<g transform="translate(222, 30)" class="key keypos-2">
<rect rx="4" ry="4" x="-30" y="-28" width="61" height="57" class="key"/>
<text x="0" y="0" class="key tap">Eㄷ</text>
</g>
<g transform="translate(286, 60)" class="key keypos-3">
<rect rx="4" ry="4" x="-30" y="-28" width="61" height="57" class="key"/>
<text x="0" y="0" class="key tap">Rㄱ</text>
</g>
<g transform="translate(349, 69)" class="key keypos-4">
<rect rx="4" ry="4" x="-30" y="-28" width="61" height="57" class="key"/>
<text x="0" y="0" class="key tap">Tㅅ</text>
</g>
<g transform="translate(553, 69)" class="key keypos-5">
<rect rx="4" ry="4" x="-30" y="-28" width="61" height="57" class="key"/>
<text x="0" y="0" class="key tap">Yㅛ</text>
</g>
<g transform="translate(616, 60)" class="key keypos-6">
<rect rx="4" ry="4" x="-30" y="-28" width="61" height="57" class="key"/>
<text x="0" y="0" class="key tap">Uㅕ</text>
</g>
<g transform="translate(680, 30)" class="key keypos-7">
<rect rx="4" ry="4" x="-30" y="-28" width="61" height="57" class="key"/>
<text x="0" y="0" class="key tap">Iㅑ</text>
</g>
<g transform="translate(752, 66) rotate(4.0)" class="key keypos-8">
<rect rx="4" ry="4" x="-30" y="-28" width="61" height="57" class="key"/>
<text x="0" y="0" class="key tap">Oㅐ</text>
</g>
<g transform="translate(824, 121) rotate(10.0)" class="key keypos-9">
<rect rx="4" ry="4" x="-30" y="-28" width="61" height="57" class="key"/>
<text x="0" y="0" class="key tap">Pㅔ</text>
</g>
<g transform="translate(89, 180) rotate(-10.0)" class="key keypos-10">
<rect rx="4" ry="4" x="-30" y="-28" width="61" height="57" class="key"/>
<text x="0" y="0" class="key tap">Aㅁ</text>
<text x="0" y="24" class="key hold">Win</text>
</g>
<g transform="translate(154, 126) rotate(-4.0)" class="key keypos-11">
<rect rx="4" ry="4" x="-30" y="-28" width="61" height="57" class="key"/>
<text x="0" y="0" class="key tap">Sㄴ</text>
<text x="0" y="24" class="key hold">Alt</text>
</g>
<g transform="translate(222, 90)" class="key keypos-12">
<rect rx="4" ry="4" x="-30" y="-28" width="61" height="57" class="key"/>
<text x="0" y="0" class="key tap">Dㅇ</text>
<text x="0" y="24" class="key hold">Ctrl</text>
</g>
<g transform="translate(286, 120)" class="key keypos-13">
<rect rx="4" ry="4" x="-30" y="-28" width="61" height="57" class="key"/>
<text x="0" y="0" class="key tap">Fㄹ</text>
<text x="0" y="24" class="key hold">Shift</text>
</g>
<g transform="translate(349, 129)" class="key keypos-14">
<rect rx="4" ry="4" x="-30" y="-28" width="61" height="57" class="key"/>
<text x="0" y="0" class="key tap">Gㅎ</text>
</g>
<g transform="translate(553, 130)" class="key keypos-15">
<rect rx="4" ry="4" x="-30" y="-28" width="61" height="57" class="key"/>
<text x="0" y="0" class="key tap">Hㅗ</text>
</g>
<g transform="translate(616, 120)" class="key keypos-16">
<rect rx="4" ry="4" x="-30" y="-28" width="61" height="57" class="key"/>
<text x="0" y="0" class="key tap">Jㅓ</text>
<text x="0" y="24" class="key hold">Shift</text>
</g>
<g transform="translate(680, 90)" class="key keypos-17">
<rect rx="4" ry="4" x="-30" y="-28" width="61" height="57" class="key"/>
<text x="0" y="0" class="key tap">Kㅏ</text>
<text x="0" y="24" class="key hold">Ctrl</text>
</g>
<g transform="translate(748, 126) rotate(4.0)" class="key keypos-18">
<rect rx="4" ry="4" x="-30" y="-28" width="61" height="57" class="key"/>
<text x="0" y="0" class="key tap">Lㅣ</text>
<text x="0" y="24" class="key hold">Alt</text>
</g>
<g transform="translate(813, 180) rotate(10.0)" class="key keypos-19">
<rect rx="4" ry="4" x="-30" y="-28" width="61" height="57" class="key"/>
<text x="0" y="0" class="key tap">&#x27;</text>
<text x="0" y="24" class="key hold">Win</text>
<text x="0" y="-24" class="key shifted">&quot;</text>
</g>
<g transform="translate(99, 239) rotate(-10.0)" class="key keypos-20">
<rect rx="4" ry="4" x="-30" y="-28" width="61" height="57" class="key"/>
<text x="0" y="0" class="key tap">Zㅋ</text>
</g>
<g transform="translate(158, 186) rotate(-4.0)" class="key keypos-21">
<rect rx="4" ry="4" x="-30" y="-28" width="61" height="57" class="key"/>
<text x="0" y="0" class="key tap">Xㅌ</text>
</g>
<g transform="translate(222, 150)" class="key keypos-22">
<rect rx="4" ry="4" x="-30" y="-28" width="61" height="57" class="key"/>
<text x="0" y="0" class="key tap">Cㅊ</text>
</g>
<g transform="translate(286, 180)" class="key keypos-23">
<rect rx="4" ry="4" x="-30" y="-28" width="61" height="57" class="key"/>
<text x="0" y="0" class="key tap">Vㅍ</text>
</g>
<g transform="translate(349, 189)" class="key keypos-24">
<rect rx="4" ry="4" x="-30" y="-28" width="61" height="57" class="key"/>
<text x="0" y="0" class="key tap">Bㅠ</text>
</g>
<g transform="translate(553, 190)" class="key keypos-25">
<rect rx="4" ry="4" x="-30" y="-28" width="61" height="57" class="key"/>
<text x="0" y="0" class="key tap">Nㅜ</text>
</g>
<g transform="translate(616, 180)" class="key keypos-26">
<rect rx="4" ry="4" x="-30" y="-28" width="61" height="57" class="key"/>
<text x="0" y="0" class="key tap">Mㅡ</text>
</g>
<g transform="translate(680, 150)" class="key keypos-27">
<rect rx="4" ry="4" x="-30" y="-28" width="61" height="57" class="key"/>
<text x="0" y="0" class="key tap">,</text>
<text x="0" y="-24" class="key shifted">;</text>
</g>
<g transform="translate(744, 186) rotate(4.0)" class="key keypos-28">
<rect rx="4" ry="4" x="-30" y="-28" width="61" height="57" class="key"/>
<text x="0" y="0" class="key tap">.</text>
<text x="0" y="-24" class="key shifted">:</text>
</g>
<g transform="translate(803, 239) rotate(10.0)" class="key keypos-29">
<rect rx="4" ry="4" x="-30" y="-28" width="61" height="57" class="key"/>
<text x="0" y="0" class="key tap">?</text>
<text x="0" y="-24" class="key shifted">!</text>
</g>
<g transform="translate(32, 224) rotate(-10.0)" class="key trans keypos-30">
<rect rx="4" ry="4" x="-30" y="-28" width="61" height="57" class="key trans"/>
</g>
<g transform="translate(32, 224) rotate(-10.0)" class="key none keypos-31">
<rect rx="4" ry="4" x="-30" y="-28" width="61" height="57" class="key none"/>
</g>
<g transform="translate(268, 253)" class="key trans keypos-32">
<rect rx="4" ry="4" x="-30" y="-28" width="61" height="57" class="key trans"/>
</g>
<g transform="translate(338, 263) rotate(15.0)" class="key keypos-33">
<rect rx="4" ry="4" x="-30" y="-28" width="61" height="57" class="key"/>
<text x="0" y="0" class="key tap">Enter</text>
<text x="0" y="24" class="key hold">Ctrl</text>
</g>
<g transform="translate(403, 290) rotate(30.0)" class="key keypos-34">
<rect rx="4" ry="4" x="-30" y="-28" width="61" height="57" class="key"/>
<text x="0" y="0" class="key tap">Space</text>
<text x="0" y="24" class="key hold">NAVI</text>
</g>
<g transform="translate(499, 290) rotate(-30.0)" class="key keypos-35">
<rect rx="4" ry="4" x="-30" y="-28" width="61" height="57" class="key"/>
<text x="0" y="0" class="key tap"><tspan style="font-size: 60%">Backspace</tspan></text>
<text x="0" y="24" class="key hold">Shift</text>
</g>
<g transform="translate(564, 263) rotate(-15.0)" class="key keypos-36">
<rect rx="4" ry="4" x="-30" y="-28" width="61" height="57" class="key"/>
<text x="0" y="0" class="key tap"><tspan style="font-size: 83%">Delete</tspan></text>
<text x="0" y="24" class="key hold">NUMB</text>
</g>
<g transform="translate(634, 253)" class="key keypos-37">
<rect rx="4" ry="4" x="-30" y="-28" width="61" height="57" class="key"/>
<text x="0" y="0" class="key tap">FUNC</text>
</g>
<g transform="translate(870, 224) rotate(10.0)" class="key none keypos-38">
<rect rx="4" ry="4" x="-30" y="-28" width="61" height="57" class="key none"/>
</g>
<g transform="translate(870, 224) rotate(10.0)" class="key none keypos-39">
<rect rx="4" ry="4" x="-30" y="-28" width="61" height="57" class="key none"/>
</g>
<g class="combo combopos-0">
<rect rx="4" ry="4" x="171" y="28" width="30" height="40" class="combo"/>
<text x="186" y="48" class="combo tap">-</text>
<text x="186" y="32" class="combo shifted">/</text>
</g>
<g class="combo combopos-1">
<rect rx="4" ry="4" x="239" y="25" width="30" height="40" class="combo"/>
<text x="254" y="45" class="combo tap">+</text>
<text x="254" y="29" class="combo shifted">*</text>
</g>
<g class="combo combopos-2">
<path d="M218,-19 h-62 a6.0,6.0 0 0 0 -6.0,6.0 v59" class="combo"/>
<path d="M218,-19 h62 a6.0,6.0 0 0 1 6.0,6.0 v53" class="combo"/>
<rect rx="4" ry="4" x="203" y="-39" width="30" height="40" class="combo"/>
<text x="218" y="-19" class="combo tap">=</text>
<text x="218" y="-35" class="combo shifted">_</text>
</g>
<g class="combo combopos-3">
<rect rx="4" ry="4" x="173" y="88" width="30" height="40" class="combo"/>
<text x="188" y="108" class="combo tap">Tab</text>
</g>
<g class="combo combopos-4">
<rect rx="4" ry="4" x="239" y="85" width="30" height="40" class="combo"/>
<text x="254" y="105" class="combo tap"><tspan style="font-size: 60%">Backspace</tspan></text>
</g>
<g class="combo combopos-5">
<path d="M220,123 l-45,2" class="combo"/>
<path d="M220,123 l45,-2" class="combo"/>
<rect rx="4" ry="4" x="205" y="103" width="30" height="40" class="combo"/>
<text x="220" y="123" class="combo tap">Esc</text>
</g>
<g class="combo combopos-6">
<rect rx="4" ry="4" x="175" y="148" width="30" height="40" class="combo"/>
<text x="190" y="168" class="combo tap">\</text>
<text x="190" y="152" class="combo shifted">#</text>
</g>
<g class="combo combopos-7">
<rect rx="4" ry="4" x="239" y="145" width="30" height="40" class="combo"/>
<text x="254" y="165" class="combo tap">@</text>
<text x="254" y="149" class="combo shifted">%</text>
</g>
<g class="combo combopos-8">
<path d="M222,217 h-58 a6.0,6.0 0 0 1 -6.0,-6.0 v-5" class="combo"/>
<path d="M222,217 h58 a6.0,6.0 0 0 0 6.0,-6.0 v-11" class="combo"/>
<rect rx="4" ry="4" x="207" y="197" width="30" height="40" class="combo"/>
<text x="222" y="217" class="combo tap">`</text>
<text x="222" y="201" class="combo shifted">^</text>
</g>
<g class="combo combopos-9">
<rect rx="4" ry="4" x="633" y="25" width="30" height="40" class="combo"/>
<text x="648" y="45" class="combo tap">(</text>
<text x="648" y="29" class="combo shifted">&lt;</text>
</g>
<g class="combo combopos-10">
<rect rx="4" ry="4" x="701" y="28" width="30" height="40" class="combo"/>
<text x="716" y="48" class="combo tap">)</text>
<text x="716" y="32" class="combo shifted">&gt;</text>
</g>
<g class="combo combopos-11">
<path d="M684,-19 h-62 a6.0,6.0 0 0 0 -6.0,6.0 v53" class="combo"/>
<path d="M684,-19 h62 a6.0,6.0 0 0 1 6.0,6.0 v59" class="combo"/>
<rect rx="4" ry="4" x="669" y="-39" width="30" height="40" class="combo"/>
<text x="684" y="-19" class="combo tap">|</text>
<text x="684" y="-35" class="combo shifted">&amp;</text>
</g>
<g class="combo combopos-12">
<rect rx="4" ry="4" x="633" y="85" width="30" height="40" class="combo"/>
<text x="648" y="105" class="combo tap">한/영</text>
</g>
<g class="combo combopos-13">
<rect rx="4" ry="4" x="699" y="88" width="30" height="40" class="combo"/>
<text x="714" y="108" class="combo tap"><tspan style="font-size: 62%">Capslock</tspan></text>
</g>
<g class="combo combopos-14">
<rect rx="4" ry="4" x="633" y="145" width="30" height="40" class="combo"/>
<text x="648" y="165" class="combo tap">[</text>
<text x="648" y="149" class="combo shifted">{</text>
</g>
<g class="combo combopos-15">
<rect rx="4" ry="4" x="697" y="148" width="30" height="40" class="combo"/>
<text x="712" y="168" class="combo tap">]</text>
<text x="712" y="152" class="combo shifted">}</text>
</g>
<g class="combo combopos-16">
<path d="M680,217 h-58 a6.0,6.0 0 0 1 -6.0,-6.0 v-11" class="combo"/>
<path d="M680,217 h58 a6.0,6.0 0 0 0 6.0,-6.0 v-5" class="combo"/>
<rect rx="4" ry="4" x="665" y="197" width="30" height="40" class="combo"/>
<text x="680" y="217" class="combo tap">~</text>
<text x="680" y="201" class="combo shifted">$</text>
</g>
</g>
</g>
<g transform="translate(0, 380)" class="layer-NAVI">
<text x="0" y="0" class="label">NAVI</text>
<g transform="translate(0, 0)">
<g transform="translate(78, 121) rotate(-10.0)" class="key trans keypos-0">
<rect rx="4" ry="4" x="-30" y="-28" width="61" height="57" class="key trans"/>
</g>
<g transform="translate(150, 66) rotate(-4.0)" class="key keypos-1">
<rect rx="4" ry="4" x="-30" y="-28" width="61" height="57" class="key"/>
<text x="0" y="0" class="key tap"><tspan style="font-size: 71%">Desktop</tspan></text>
<use href="#mdi:arrow-left-bold" xlink:href="#mdi:arrow-left-bold" x="-7" y="10" height="14" width="14.0" class="key hold glyph mdi:arrow-left-bold"/>
</g>
<g transform="translate(222, 30)" class="key keypos-2">
<rect rx="4" ry="4" x="-30" y="-28" width="61" height="57" class="key"/>
<text x="0" y="0" class="key tap"><tspan style="font-size: 71%">Desktop</tspan></text>
<text x="0" y="24" class="key hold">All</text>
</g>
<g transform="translate(286, 60)" class="key keypos-3">
<rect rx="4" ry="4" x="-30" y="-28" width="61" height="57" class="key"/>
<text x="0" y="0" class="key tap"><tspan style="font-size: 71%">Desktop</tspan></text>
<use href="#mdi:arrow-right-bold" xlink:href="#mdi:arrow-right-bold" x="-7" y="10" height="14" width="14.0" class="key hold glyph mdi:arrow-right-bold"/>
</g>
<g transform="translate(349, 69)" class="key trans keypos-4">
<rect rx="4" ry="4" x="-30" y="-28" width="61" height="57" class="key trans"/>
</g>
<g transform="translate(553, 69)" class="key keypos-5">
<rect rx="4" ry="4" x="-30" y="-28" width="61" height="57" class="key"/>
<text x="0" y="0" class="key tap">
<tspan x="0" dy="-0.5em">Page</tspan><tspan x="0" dy="1.0em">Down</tspan>
</text>
</g>
<g transform="translate(616, 60)" class="key keypos-6">
<rect rx="4" ry="4" x="-30" y="-28" width="61" height="57" class="key"/>
<text x="0" y="0" class="key tap">Word</text>
<use href="#mdi:arrow-left-bold" xlink:href="#mdi:arrow-left-bold" x="-7" y="10" height="14" width="14.0" class="key hold glyph mdi:arrow-left-bold"/>
</g>
<g transform="translate(680, 30)" class="key keypos-7">
<rect rx="4" ry="4" x="-30" y="-28" width="61" height="57" class="key"/>
<use href="#mdi:arrow-up-bold" xlink:href="#mdi:arrow-up-bold" x="-9" y="-9" height="18" width="18.0" class="key tap glyph mdi:arrow-up-bold"/>
</g>
<g transform="translate(752, 66) rotate(4.0)" class="key keypos-8">
<rect rx="4" ry="4" x="-30" y="-28" width="61" height="57" class="key"/>
<text x="0" y="0" class="key tap">Word</text>
<use href="#mdi:arrow-right-bold" xlink:href="#mdi:arrow-right-bold" x="-7" y="10" height="14" width="14.0" class="key hold glyph mdi:arrow-right-bold"/>
</g>
<g transform="translate(824, 121) rotate(10.0)" class="key keypos-9">
<rect rx="4" ry="4" x="-30" y="-28" width="61" height="57" class="key"/>
<text x="0" y="0" class="key tap">
<tspan x="0" dy="-0.5em">Page</tspan><tspan x="0" dy="1.0em">Up</tspan>
</text>
</g>
<g transform="translate(89, 180) rotate(-10.0)" class="key keypos-10">
<rect rx="4" ry="4" x="-30" y="-28" width="61" height="57" class="key"/>
<text x="0" y="0" class="key tap">Win</text>
</g>
<g transform="translate(154, 126) rotate(-4.0)" class="key keypos-11">
<rect rx="4" ry="4" x="-30" y="-28" width="61" height="57" class="key"/>
<text x="0" y="0" class="key tap">Alt</text>
</g>
<g transform="translate(222, 90)" class="key keypos-12">
<rect rx="4" ry="4" x="-30" y="-28" width="61" height="57" class="key"/>
<text x="0" y="0" class="key tap">Ctrl</text>
</g>
<g transform="translate(286, 120)" class="key keypos-13">
<rect rx="4" ry="4" x="-30" y="-28" width="61" height="57" class="key"/>
<text x="0" y="0" class="key tap">Shift</text>
</g>
<g transform="translate(349, 129)" class="key keypos-14">
<rect rx="4" ry="4" x="-30" y="-28" width="61" height="57" class="key"/>
<use href="#mdi:window-restore" xlink:href="#mdi:window-restore" x="-9" y="-9" height="18" width="18.0" class="key tap glyph mdi:window-restore"/>
</g>
<g transform="translate(553, 130)" class="key keypos-15">
<rect rx="4" ry="4" x="-30" y="-28" width="61" height="57" class="key"/>
<text x="0" y="0" class="key tap">Home</text>
</g>
<g transform="translate(616, 120)" class="key keypos-16">
<rect rx="4" ry="4" x="-30" y="-28" width="61" height="57" class="key"/>
<use href="#mdi:arrow-left-bold" xlink:href="#mdi:arrow-left-bold" x="-9" y="-9" height="18" width="18.0" class="key tap glyph mdi:arrow-left-bold"/>
</g>
<g transform="translate(680, 90)" class="key keypos-17">
<rect rx="4" ry="4" x="-30" y="-28" width="61" height="57" class="key"/>
<use href="#mdi:arrow-down-bold" xlink:href="#mdi:arrow-down-bold" x="-9" y="-9" height="18" width="18.0" class="key tap glyph mdi:arrow-down-bold"/>
</g>
<g transform="translate(748, 126) rotate(4.0)" class="key keypos-18">
<rect rx="4" ry="4" x="-30" y="-28" width="61" height="57" class="key"/>
<use href="#mdi:arrow-right-bold" xlink:href="#mdi:arrow-right-bold" x="-9" y="-9" height="18" width="18.0" class="key tap glyph mdi:arrow-right-bold"/>
</g>
<g transform="translate(813, 180) rotate(10.0)" class="key keypos-19">
<rect rx="4" ry="4" x="-30" y="-28" width="61" height="57" class="key"/>
<text x="0" y="0" class="key tap">End</text>
</g>
<g transform="translate(99, 239) rotate(-10.0)" class="key trans keypos-20">
<rect rx="4" ry="4" x="-30" y="-28" width="61" height="57" class="key trans"/>
</g>
<g transform="translate(158, 186) rotate(-4.0)" class="key trans keypos-21">
<rect rx="4" ry="4" x="-30" y="-28" width="61" height="57" class="key trans"/>
</g>
<g transform="translate(222, 150)" class="key trans keypos-22">
<rect rx="4" ry="4" x="-30" y="-28" width="61" height="57" class="key trans"/>
</g>
<g transform="translate(286, 180)" class="key trans keypos-23">
<rect rx="4" ry="4" x="-30" y="-28" width="61" height="57" class="key trans"/>
</g>
<g transform="translate(349, 189)" class="key trans keypos-24">
<rect rx="4" ry="4" x="-30" y="-28" width="61" height="57" class="key trans"/>
</g>
<g transform="translate(553, 190)" class="key trans keypos-25">
<rect rx="4" ry="4" x="-30" y="-28" width="61" height="57" class="key trans"/>
</g>
<g transform="translate(616, 180)" class="key keypos-26">
<rect rx="4" ry="4" x="-30" y="-28" width="61" height="57" class="key"/>
<use href="#mdi:volume-low" xlink:href="#mdi:volume-low" x="-9" y="-9" height="18" width="18.0" class="key tap glyph mdi:volume-low"/>
</g>
<g transform="translate(680, 150)" class="key keypos-27">
<rect rx="4" ry="4" x="-30" y="-28" width="61" height="57" class="key"/>
<use href="#mdi:volume-off" xlink:href="#mdi:volume-off" x="-9" y="-9" height="18" width="18.0" class="key tap glyph mdi:volume-off"/>
</g>
<g transform="translate(744, 186) rotate(4.0)" class="key keypos-28">
<rect rx="4" ry="4" x="-30" y="-28" width="61" height="57" class="key"/>
<use href="#mdi:volume-high" xlink:href="#mdi:volume-high" x="-9" y="-9" height="18" width="18.0" class="key tap glyph mdi:volume-high"/>
</g>
<g transform="translate(803, 239) rotate(10.0)" class="key trans keypos-29">
<rect rx="4" ry="4" x="-30" y="-28" width="61" height="57" class="key trans"/>
</g>
<g transform="translate(32, 224) rotate(-10.0)" class="key trans keypos-30">
<rect rx="4" ry="4" x="-30" y="-28" width="61" height="57" class="key trans"/>
</g>
<g transform="translate(32, 224) rotate(-10.0)" class="key none keypos-31">
<rect rx="4" ry="4" x="-30" y="-28" width="61" height="57" class="key none"/>
</g>
<g transform="translate(268, 253)" class="key trans keypos-32">
<rect rx="4" ry="4" x="-30" y="-28" width="61" height="57" class="key trans"/>
</g>
<g transform="translate(338, 263) rotate(15.0)" class="key trans keypos-33">
<rect rx="4" ry="4" x="-30" y="-28" width="61" height="57" class="key trans"/>
</g>
<g transform="translate(403, 290) rotate(30.0)" class="key held keypos-34">
<rect rx="4" ry="4" x="-30" y="-28" width="61" height="57" class="key held"/>
</g>
<g transform="translate(499, 290) rotate(-30.0)" class="key trans keypos-35">
<rect rx="4" ry="4" x="-30" y="-28" width="61" height="57" class="key trans"/>
</g>
<g transform="translate(564, 263) rotate(-15.0)" class="key trans keypos-36">
<rect rx="4" ry="4" x="-30" y="-28" width="61" height="57" class="key trans"/>
</g>
<g transform="translate(634, 253)" class="key trans keypos-37">
<rect rx="4" ry="4" x="-30" y="-28" width="61" height="57" class="key trans"/>
</g>
<g transform="translate(870, 224) rotate(10.0)" class="key none keypos-38">
<rect rx="4" ry="4" x="-30" y="-28" width="61" height="57" class="key none"/>
</g>
<g transform="translate(870, 224) rotate(10.0)" class="key trans keypos-39">
<rect rx="4" ry="4" x="-30" y="-28" width="61" height="57" class="key trans"/>
</g>
</g>
</g>
<g transform="translate(0, 711)" class="layer-NUMB">
<text x="0" y="0" class="label">NUMB</text>
<g transform="translate(0, 0)">
<g transform="translate(78, 121) rotate(-10.0)" class="key trans keypos-0">
<rect rx="4" ry="4" x="-30" y="-28" width="61" height="57" class="key trans"/>
</g>
<g transform="translate(150, 66) rotate(-4.0)" class="key keypos-1">
<rect rx="4" ry="4" x="-30" y="-28" width="61" height="57" class="key"/>
<text x="0" y="0" class="key tap">7</text>
</g>
<g transform="translate(222, 30)" class="key keypos-2">
<rect rx="4" ry="4" x="-30" y="-28" width="61" height="57" class="key"/>
<text x="0" y="0" class="key tap">8</text>
</g>
<g transform="translate(286, 60)" class="key keypos-3">
<rect rx="4" ry="4" x="-30" y="-28" width="61" height="57" class="key"/>
<text x="0" y="0" class="key tap">9</text>
</g>
<g transform="translate(349, 69)" class="key trans keypos-4">
<rect rx="4" ry="4" x="-30" y="-28" width="61" height="57" class="key trans"/>
</g>
<g transform="translate(553, 69)" class="key trans keypos-5">
<rect rx="4" ry="4" x="-30" y="-28" width="61" height="57" class="key trans"/>
</g>
<g transform="translate(616, 60)" class="key trans keypos-6">
<rect rx="4" ry="4" x="-30" y="-28" width="61" height="57" class="key trans"/>
</g>
<g transform="translate(680, 30)" class="key trans keypos-7">
<rect rx="4" ry="4" x="-30" y="-28" width="61" height="57" class="key trans"/>
</g>
<g transform="translate(752, 66) rotate(4.0)" class="key trans keypos-8">
<rect rx="4" ry="4" x="-30" y="-28" width="61" height="57" class="key trans"/>
</g>
<g transform="translate(824, 121) rotate(10.0)" class="key trans keypos-9">
<rect rx="4" ry="4" x="-30" y="-28" width="61" height="57" class="key trans"/>
</g>
<g transform="translate(89, 180) rotate(-10.0)" class="key trans keypos-10">
<rect rx="4" ry="4" x="-30" y="-28" width="61" height="57" class="key trans"/>
</g>
<g transform="translate(154, 126) rotate(-4.0)" class="key keypos-11">
<rect rx="4" ry="4" x="-30" y="-28" width="61" height="57" class="key"/>
<text x="0" y="0" class="key tap">4</text>
</g>
<g transform="translate(222, 90)" class="key keypos-12">
<rect rx="4" ry="4" x="-30" y="-28" width="61" height="57" class="key"/>
<text x="0" y="0" class="key tap">5</text>
</g>
<g transform="translate(286, 120)" class="key keypos-13">
<rect rx="4" ry="4" x="-30" y="-28" width="61" height="57" class="key"/>
<text x="0" y="0" class="key tap">6</text>
</g>
<g transform="translate(349, 129)" class="key trans keypos-14">
<rect rx="4" ry="4" x="-30" y="-28" width="61" height="57" class="key trans"/>
</g>
<g transform="translate(553, 130)" class="key trans keypos-15">
<rect rx="4" ry="4" x="-30" y="-28" width="61" height="57" class="key trans"/>
</g>
<g transform="translate(616, 120)" class="key keypos-16">
<rect rx="4" ry="4" x="-30" y="-28" width="61" height="57" class="key"/>
<text x="0" y="0" class="key tap">Shift</text>
</g>
<g transform="translate(680, 90)" class="key keypos-17">
<rect rx="4" ry="4" x="-30" y="-28" width="61" height="57" class="key"/>
<text x="0" y="0" class="key tap">Ctrl</text>
</g>
<g transform="translate(748, 126) rotate(4.0)" class="key keypos-18">
<rect rx="4" ry="4" x="-30" y="-28" width="61" height="57" class="key"/>
<text x="0" y="0" class="key tap">Alt</text>
</g>
<g transform="translate(813, 180) rotate(10.0)" class="key keypos-19">
<rect rx="4" ry="4" x="-30" y="-28" width="61" height="57" class="key"/>
<text x="0" y="0" class="key tap">Win</text>
</g>
<g transform="translate(99, 239) rotate(-10.0)" class="key keypos-20">
<rect rx="4" ry="4" x="-30" y="-28" width="61" height="57" class="key"/>
<text x="0" y="0" class="key tap">0</text>
</g>
<g transform="translate(158, 186) rotate(-4.0)" class="key keypos-21">
<rect rx="4" ry="4" x="-30" y="-28" width="61" height="57" class="key"/>
<text x="0" y="0" class="key tap">1</text>
</g>
<g transform="translate(222, 150)" class="key keypos-22">
<rect rx="4" ry="4" x="-30" y="-28" width="61" height="57" class="key"/>
<text x="0" y="0" class="key tap">2</text>
</g>
<g transform="translate(286, 180)" class="key keypos-23">
<rect rx="4" ry="4" x="-30" y="-28" width="61" height="57" class="key"/>
<text x="0" y="0" class="key tap">3</text>
</g>
<g transform="translate(349, 189)" class="key trans keypos-24">
<rect rx="4" ry="4" x="-30" y="-28" width="61" height="57" class="key trans"/>
</g>
<g transform="translate(553, 190)" class="key trans keypos-25">
<rect rx="4" ry="4" x="-30" y="-28" width="61" height="57" class="key trans"/>
</g>
<g transform="translate(616, 180)" class="key trans keypos-26">
<rect rx="4" ry="4" x="-30" y="-28" width="61" height="57" class="key trans"/>
</g>
<g transform="translate(680, 150)" class="key trans keypos-27">
<rect rx="4" ry="4" x="-30" y="-28" width="61" height="57" class="key trans"/>
</g>
<g transform="translate(744, 186) rotate(4.0)" class="key trans keypos-28">
<rect rx="4" ry="4" x="-30" y="-28" width="61" height="57" class="key trans"/>
</g>
<g transform="translate(803, 239) rotate(10.0)" class="key trans keypos-29">
<rect rx="4" ry="4" x="-30" y="-28" width="61" height="57" class="key trans"/>
</g>
<g transform="translate(32, 224) rotate(-10.0)" class="key trans keypos-30">
<rect rx="4" ry="4" x="-30" y="-28" width="61" height="57" class="key trans"/>
</g>
<g transform="translate(32, 224) rotate(-10.0)" class="key none keypos-31">
<rect rx="4" ry="4" x="-30" y="-28" width="61" height="57" class="key none"/>
</g>
<g transform="translate(268, 253)" class="key trans keypos-32">
<rect rx="4" ry="4" x="-30" y="-28" width="61" height="57" class="key trans"/>
</g>
<g transform="translate(338, 263) rotate(15.0)" class="key trans keypos-33">
<rect rx="4" ry="4" x="-30" y="-28" width="61" height="57" class="key trans"/>
</g>
<g transform="translate(403, 290) rotate(30.0)" class="key trans keypos-34">
<rect rx="4" ry="4" x="-30" y="-28" width="61" height="57" class="key trans"/>
</g>
<g transform="translate(499, 290) rotate(-30.0)" class="key trans keypos-35">
<rect rx="4" ry="4" x="-30" y="-28" width="61" height="57" class="key trans"/>
</g>
<g transform="translate(564, 263) rotate(-15.0)" class="key held keypos-36">
<rect rx="4" ry="4" x="-30" y="-28" width="61" height="57" class="key held"/>
</g>
<g transform="translate(634, 253)" class="key trans keypos-37">
<rect rx="4" ry="4" x="-30" y="-28" width="61" height="57" class="key trans"/>
</g>
<g transform="translate(870, 224) rotate(10.0)" class="key none keypos-38">
<rect rx="4" ry="4" x="-30" y="-28" width="61" height="57" class="key none"/>
</g>
<g transform="translate(870, 224) rotate(10.0)" class="key trans keypos-39">
<rect rx="4" ry="4" x="-30" y="-28" width="61" height="57" class="key trans"/>
</g>
</g>
</g>
<g transform="translate(0, 1043)" class="layer-FUNC">
<text x="0" y="0" class="label">FUNC</text>
<g transform="translate(0, 0)">
<g transform="translate(78, 121) rotate(-10.0)" class="key keypos-0">
<rect rx="4" ry="4" x="-30" y="-28" width="61" height="57" class="key"/>
<text x="0" y="0" class="key tap">F12</text>
</g>
<g transform="translate(150, 66) rotate(-4.0)" class="key keypos-1">
<rect rx="4" ry="4" x="-30" y="-28" width="61" height="57" class="key"/>
<text x="0" y="0" class="key tap">F7</text>
</g>
<g transform="translate(222, 30)" class="key keypos-2">
<rect rx="4" ry="4" x="-30" y="-28" width="61" height="57" class="key"/>
<text x="0" y="0" class="key tap">F8</text>
</g>
<g transform="translate(286, 60)" class="key keypos-3">
<rect rx="4" ry="4" x="-30" y="-28" width="61" height="57" class="key"/>
<text x="0" y="0" class="key tap">F9</text>
</g>
<g transform="translate(349, 69)" class="key keypos-4">
<rect rx="4" ry="4" x="-30" y="-28" width="61" height="57" class="key"/>
<text x="0" y="0" class="key tap">
<tspan x="0" dy="-0.5em" style="font-size: 83%">Print</tspan><tspan x="0" dy="1.0em" style="font-size: 83%">Screen</tspan>
</text>
</g>
<g transform="translate(553, 69)" class="key keypos-5">
<rect rx="4" ry="4" x="-30" y="-28" width="61" height="57" class="key"/>
<use href="#mdi:bluetooth-off" xlink:href="#mdi:bluetooth-off" x="-9" y="-9" height="18" width="18.0" class="key tap glyph mdi:bluetooth-off"/>
</g>
<g transform="translate(616, 60)" class="key keypos-6">
<rect rx="4" ry="4" x="-30" y="-28" width="61" height="57" class="key"/>
<use href="#mdi:bluetooth-connect" xlink:href="#mdi:bluetooth-connect" x="-9" y="-9" height="18" width="18.0" class="key tap glyph mdi:bluetooth-connect"/>
<text x="0" y="24" class="key hold">1</text>
</g>
<g transform="translate(680, 30)" class="key keypos-7">
<rect rx="4" ry="4" x="-30" y="-28" width="61" height="57" class="key"/>
<use href="#mdi:bluetooth-connect" xlink:href="#mdi:bluetooth-connect" x="-9" y="-9" height="18" width="18.0" class="key tap glyph mdi:bluetooth-connect"/>
<text x="0" y="24" class="key hold">2</text>
</g>
<g transform="translate(752, 66) rotate(4.0)" class="key keypos-8">
<rect rx="4" ry="4" x="-30" y="-28" width="61" height="57" class="key"/>
<use href="#mdi:bluetooth-connect" xlink:href="#mdi:bluetooth-connect" x="-9" y="-9" height="18" width="18.0" class="key tap glyph mdi:bluetooth-connect"/>
<text x="0" y="24" class="key hold">3</text>
</g>
<g transform="translate(824, 121) rotate(10.0)" class="key keypos-9">
<rect rx="4" ry="4" x="-30" y="-28" width="61" height="57" class="key"/>
<use href="#mdi:bluetooth-connect" xlink:href="#mdi:bluetooth-connect" x="-9" y="-9" height="18" width="18.0" class="key tap glyph mdi:bluetooth-connect"/>
<text x="0" y="24" class="key hold">4</text>
</g>
<g transform="translate(89, 180) rotate(-10.0)" class="key keypos-10">
<rect rx="4" ry="4" x="-30" y="-28" width="61" height="57" class="key"/>
<text x="0" y="0" class="key tap">F11</text>
</g>
<g transform="translate(154, 126) rotate(-4.0)" class="key keypos-11">
<rect rx="4" ry="4" x="-30" y="-28" width="61" height="57" class="key"/>
<text x="0" y="0" class="key tap">F4</text>
</g>
<g transform="translate(222, 90)" class="key keypos-12">
<rect rx="4" ry="4" x="-30" y="-28" width="61" height="57" class="key"/>
<text x="0" y="0" class="key tap">F5</text>
</g>
<g transform="translate(286, 120)" class="key keypos-13">
<rect rx="4" ry="4" x="-30" y="-28" width="61" height="57" class="key"/>
<text x="0" y="0" class="key tap">F6</text>
</g>
<g transform="translate(349, 129)" class="key keypos-14">
<rect rx="4" ry="4" x="-30" y="-28" width="61" height="57" class="key"/>
<text x="0" y="0" class="key tap">
<tspan x="0" dy="-0.5em" style="font-size: 83%">Scroll</tspan><tspan x="0" dy="1.0em" style="font-size: 83%">Lock</tspan>
</text>
</g>
<g transform="translate(553, 130)" class="key trans keypos-15">
<rect rx="4" ry="4" x="-30" y="-28" width="61" height="57" class="key trans"/>
</g>
<g transform="translate(616, 120)" class="key keypos-16">
<rect rx="4" ry="4" x="-30" y="-28" width="61" height="57" class="key"/>
<text x="0" y="0" class="key tap">Shift</text>
</g>
<g transform="translate(680, 90)" class="key keypos-17">
<rect rx="4" ry="4" x="-30" y="-28" width="61" height="57" class="key"/>
<text x="0" y="0" class="key tap">Ctrl</text>
</g>
<g transform="translate(748, 126) rotate(4.0)" class="key keypos-18">
<rect rx="4" ry="4" x="-30" y="-28" width="61" height="57" class="key"/>
<text x="0" y="0" class="key tap">Alt</text>
</g>
<g transform="translate(813, 180) rotate(10.0)" class="key keypos-19">
<rect rx="4" ry="4" x="-30" y="-28" width="61" height="57" class="key"/>
<text x="0" y="0" class="key tap">Win</text>
</g>
<g transform="translate(99, 239) rotate(-10.0)" class="key keypos-20">
<rect rx="4" ry="4" x="-30" y="-28" width="61" height="57" class="key"/>
<text x="0" y="0" class="key tap">F10</text>
</g>
<g transform="translate(158, 186) rotate(-4.0)" class="key keypos-21">
<rect rx="4" ry="4" x="-30" y="-28" width="61" height="57" class="key"/>
<text x="0" y="0" class="key tap">F1</text>
</g>
<g transform="translate(222, 150)" class="key keypos-22">
<rect rx="4" ry="4" x="-30" y="-28" width="61" height="57" class="key"/>
<text x="0" y="0" class="key tap">F2</text>
</g>
<g transform="translate(286, 180)" class="key keypos-23">
<rect rx="4" ry="4" x="-30" y="-28" width="61" height="57" class="key"/>
<text x="0" y="0" class="key tap">F3</text>
</g>
<g transform="translate(349, 189)" class="key keypos-24">
<rect rx="4" ry="4" x="-30" y="-28" width="61" height="57" class="key"/>
<text x="0" y="0" class="key tap">
<tspan x="0" dy="-0.5em">Pause</tspan><tspan x="0" dy="1.0em">Break</tspan>
</text>
</g>
<g transform="translate(553, 190)" class="key trans keypos-25">
<rect rx="4" ry="4" x="-30" y="-28" width="61" height="57" class="key trans"/>
</g>
<g transform="translate(616, 180)" class="key trans keypos-26">
<rect rx="4" ry="4" x="-30" y="-28" width="61" height="57" class="key trans"/>
</g>
<g transform="translate(680, 150)" class="key trans keypos-27">
<rect rx="4" ry="4" x="-30" y="-28" width="61" height="57" class="key trans"/>
</g>
<g transform="translate(744, 186) rotate(4.0)" class="key trans keypos-28">
<rect rx="4" ry="4" x="-30" y="-28" width="61" height="57" class="key trans"/>
</g>
<g transform="translate(803, 239) rotate(10.0)" class="key trans keypos-29">
<rect rx="4" ry="4" x="-30" y="-28" width="61" height="57" class="key trans"/>
</g>
<g transform="translate(32, 224) rotate(-10.0)" class="key trans keypos-30">
<rect rx="4" ry="4" x="-30" y="-28" width="61" height="57" class="key trans"/>
</g>
<g transform="translate(32, 224) rotate(-10.0)" class="key none keypos-31">
<rect rx="4" ry="4" x="-30" y="-28" width="61" height="57" class="key none"/>
</g>
<g transform="translate(268, 253)" class="key trans keypos-32">
<rect rx="4" ry="4" x="-30" y="-28" width="61" height="57" class="key trans"/>
</g>
<g transform="translate(338, 263) rotate(15.0)" class="key trans keypos-33">
<rect rx="4" ry="4" x="-30" y="-28" width="61" height="57" class="key trans"/>
</g>
<g transform="translate(403, 290) rotate(30.0)" class="key trans keypos-34">
<rect rx="4" ry="4" x="-30" y="-28" width="61" height="57" class="key trans"/>
</g>
<g transform="translate(499, 290) rotate(-30.0)" class="key trans keypos-35">
<rect rx="4" ry="4" x="-30" y="-28" width="61" height="57" class="key trans"/>
</g>
<g transform="translate(564, 263) rotate(-15.0)" class="key trans keypos-36">
<rect rx="4" ry="4" x="-30" y="-28" width="61" height="57" class="key trans"/>
</g>
<g transform="translate(634, 253)" class="key held keypos-37">
<rect rx="4" ry="4" x="-30" y="-28" width="61" height="57" class="key held"/>
</g>
<g transform="translate(870, 224) rotate(10.0)" class="key none keypos-38">
<rect rx="4" ry="4" x="-30" y="-28" width="61" height="57" class="key none"/>
</g>
<g transform="translate(870, 224) rotate(10.0)" class="key trans keypos-39">
<rect rx="4" ry="4" x="-30" y="-28" width="61" height="57" class="key trans"/>
</g>
</g>
</g>
</svg>
